<mxfile host="app.diagrams.net" modified="2020-11-12T01:30:37.660Z" agent="5.0 (Macintosh; Intel Mac OS X 10_14_6) AppleWebKit/537.36 (KHTML, like Gecko) Chrome/86.0.4240.183 Safari/537.36" etag="4AtqIvptjelDZwVtheTa" version="13.9.6" type="github">
  <diagram id="oTwrtT7Fsw6-lRFjjh9x" name="Devops">
    <mxGraphModel dx="997" dy="918" grid="1" gridSize="10" guides="1" tooltips="1" connect="1" arrows="1" fold="1" page="1" pageScale="1" pageWidth="850" pageHeight="1100" math="0" shadow="0">
      <root>
        <mxCell id="0" />
        <mxCell id="1" parent="0" />
      </root>
    </mxGraphModel>
  </diagram>
</mxfile>
